<svg xmlns="http://www.w3.org/2000/svg" xmlns:xlink="http://www.w3.org/1999/xlink" version="1.1" x="0px" y="0px" viewBox="0 0 100 80" enable-background="new 0 0 100 80" xml:space="preserve"><path d="M61.231,49.032c9.57-1.359,17.241-4.448,17.241-8.819c0-3.822-5.865-6.663-13.734-8.225  c-2.762-5.521-8.391-9.081-14.738-9.081c-6.341,0-11.955,3.563-14.719,9.078c-7.879,1.562-13.753,4.404-13.753,8.229  c0,4.371,7.669,7.459,17.238,8.818l-4.641,23.613c-0.048,0.146-0.068,0.297-0.088,0.447l-0.03,0.154  c-0.004,0.02,0.002,0.037,0,0.057c-0.001,0.03-0.013,0.058-0.013,0.088c0,0.032,0.012,0.062,0.013,0.094  c0.004,0.03,0.005,0.06,0.013,0.089c0.276,3.53,8.354,5.437,15.98,5.437c7.636,0,15.728-1.912,15.982-5.451  c0.003-0.015,0.004-0.03,0.006-0.046c0.002-0.041,0.018-0.08,0.018-0.122c0-0.038-0.014-0.073-0.016-0.111  c-0.002-0.012,0.002-0.021,0-0.033l-0.018-0.091c-0.019-0.179-0.046-0.354-0.104-0.524L61.231,49.032z M50,24.407  c5.369,0,10.176,2.801,12.842,7.233C58.82,30.972,54.387,30.619,50,30.619c-4.385,0-8.816,0.353-12.835,1.021  C39.831,27.209,44.633,24.407,50,24.407z M23.027,40.213c0-3.909,10.838-8.095,26.973-8.095c16.135,0,26.973,4.186,26.973,8.095  c0,2.939-6.126,6.033-16.022,7.389l-1.243-6.328c-0.001-0.004-0.004-0.007-0.005-0.011c-0.213-2.268-4.98-3.457-9.702-3.457  c-4.714,0-9.472,1.184-9.701,3.445c-0.002,0.008-0.008,0.015-0.01,0.023l-1.244,6.328C29.152,46.246,23.027,43.152,23.027,40.213z   M41.436,43.217c1.731,1.195,5.158,1.814,8.564,1.814c3.402,0,6.828-0.619,8.561-1.812l0.897,4.568  c-2.883,0.331-6.051,0.52-9.458,0.52c-3.409,0-6.578-0.188-9.462-0.52L41.436,43.217z M50,49.808c3.285,0,6.596-0.2,9.74-0.581  l4.185,21.29c-2.938-1.796-8.546-2.744-13.925-2.744c-5.382,0-10.994,0.949-13.93,2.747l4.185-21.293  C43.401,49.608,46.713,49.808,50,49.808z M50,77.51c-8.934,0-14.435-2.37-14.5-4.088l0.078-0.396  c0.7-1.674,6.055-3.752,14.422-3.752c8.347,0,13.694,2.068,14.415,3.74l0.083,0.42C64.409,75.149,58.915,77.51,50,77.51z"/></svg>